<svg width="44" height="44" viewBox="0 0 44 44" fill="none" xmlns="http://www.w3.org/2000/svg">
<g clip-path="url(#clip0_1_7)">
<path d="M22 0.879997C10.3356 0.879997 0.880005 10.3356 0.880005 22C0.880005 33.6644 10.3356 43.12 22 43.12C33.6644 43.12 43.12 33.6644 43.12 22C43.12 10.3356 33.6644 0.879997 22 0.879997ZM23.4454 27.005C22.0902 26.9016 21.5226 26.2306 20.4622 25.5882C19.8792 28.6484 19.1664 31.5832 17.0544 33.1166C16.401 28.4878 18.0092 25.0162 18.7572 21.3268C17.4834 19.1818 18.909 14.8676 21.5974 15.928C24.904 17.2392 18.733 23.903 22.8756 24.7368C27.2008 25.6036 28.9674 17.2304 26.2856 14.5112C22.4092 10.5798 15.0062 14.421 15.917 20.0486C16.137 21.4236 17.5604 21.8416 16.4846 23.7402C14.0052 23.1902 13.2638 21.2344 13.3606 18.6274C13.5124 14.3594 17.1952 11.3696 20.8868 10.9582C25.5574 10.439 29.9398 12.672 30.547 17.0676C31.2268 22.0264 28.4372 27.3922 23.4454 27.005Z" fill="black"/>
</g>
<defs>
<clipPath id="clip0_1_7">
<rect width="44" height="44" fill="white"/>
</clipPath>
</defs>
</svg>
