<svg width="49" height="49" viewBox="0 0 49 49" fill="none" xmlns="http://www.w3.org/2000/svg">
<g clip-path="url(#clip0_1_15)">
<path d="M24.5 0.980003C11.5101 0.980003 0.980011 11.5101 0.980011 24.5C0.980011 37.4899 11.5101 48.02 24.5 48.02C37.4899 48.02 48.02 37.4899 48.02 24.5C48.02 11.5101 37.4899 0.980003 24.5 0.980003ZM34.0673 20.2468C34.0754 20.4477 34.0795 20.647 34.0795 20.8446C34.0795 26.9696 29.4221 34.0281 20.901 34.0281C18.3832 34.0315 15.9179 33.3085 13.8009 31.9456C14.1618 31.988 14.5301 32.0084 14.9058 32.0068C17.0765 32.0068 19.0733 31.2694 20.6584 30.0248C19.6924 30.0058 18.7564 29.6859 17.9808 29.1097C17.2053 28.5335 16.6288 27.7297 16.3317 26.8104C17.0254 26.9423 17.7401 26.9146 18.4216 26.7295C17.3727 26.5183 16.4292 25.9505 15.7517 25.1224C15.0741 24.2943 14.7042 23.2572 14.7049 22.1872V22.1309C15.3297 22.4763 16.0451 22.687 16.8046 22.7115C15.8216 22.0572 15.1258 21.052 14.8594 19.9017C14.593 18.7513 14.7761 17.5426 15.3713 16.5228C16.5354 17.9531 17.9866 19.1233 19.6312 19.9576C21.2758 20.792 23.0772 21.2719 24.919 21.3665C24.6848 20.3725 24.7856 19.329 25.2056 18.3983C25.6257 17.4675 26.3415 16.7016 27.2417 16.2197C28.142 15.7377 29.1763 15.5666 30.1838 15.7331C31.1912 15.8996 32.1155 16.3942 32.8129 17.1402C33.8496 16.9349 34.8438 16.5547 35.7529 16.0157C35.4073 17.0891 34.6839 18.0006 33.7169 18.5808C34.6353 18.4702 35.532 18.2233 36.3776 17.8483C35.7579 18.7801 34.9753 19.5926 34.0673 20.2468Z" fill="black"/>
</g>
<defs>
<clipPath id="clip0_1_15">
<rect width="49" height="49" fill="white"/>
</clipPath>
</defs>
</svg>
