<svg width="52" height="52" viewBox="0 0 52 52" fill="none" xmlns="http://www.w3.org/2000/svg">
<path d="M29.4883 26.5265C29.4753 27.2129 29.2587 27.8799 28.8661 28.443C28.4735 29.0062 27.9225 29.4401 27.283 29.6897C26.6435 29.9394 25.9443 29.9936 25.274 29.8454C24.6037 29.6972 23.9925 29.3533 23.5178 28.8574C23.0432 28.3614 22.7264 27.7357 22.6078 27.0595C22.4892 26.3834 22.5739 25.6872 22.8514 25.0593C23.1289 24.4314 23.5865 23.9 24.1663 23.5324C24.7462 23.1649 25.4221 22.9778 26.1083 22.9948C27.0203 23.0286 27.8832 23.4162 28.5142 24.0755C29.1452 24.7348 29.4946 25.6139 29.4883 26.5265Z" fill="black"/>
<path d="M31.9865 15.6715H20.2323C19.0693 15.6715 17.9538 16.1335 17.1314 16.9559C16.309 17.7783 15.847 18.8938 15.847 20.0568V32.0753C15.847 32.6512 15.9604 33.2215 16.1808 33.7535C16.4012 34.2856 16.7242 34.769 17.1314 35.1762C17.5387 35.5835 18.0221 35.9065 18.5541 36.1269C19.0862 36.3472 19.6564 36.4607 20.2323 36.4607H31.9865C32.5624 36.4607 33.1326 36.3472 33.6647 36.1269C34.1967 35.9065 34.6802 35.5835 35.0874 35.1762C35.4946 34.769 35.8176 34.2856 36.038 33.7535C36.2584 33.2215 36.3718 32.6512 36.3718 32.0753V20.0785C36.3741 19.501 36.2624 18.9286 36.0431 18.3943C35.8238 17.86 35.5012 17.3743 35.0938 16.9649C34.6864 16.5555 34.2022 16.2305 33.669 16.0085C33.1358 15.7866 32.5641 15.6721 31.9865 15.6715ZM26.1083 32.4047C24.9448 32.4309 23.7997 32.1099 22.8194 31.4826C21.8391 30.8552 21.0679 29.95 20.6043 28.8825C20.1407 27.8149 20.0057 26.6334 20.2166 25.4888C20.4274 24.3442 20.9745 23.2883 21.788 22.456C22.6015 21.6237 23.6446 21.0527 24.7841 20.8158C25.9236 20.5789 27.1079 20.6869 28.1858 21.126C29.2636 21.5651 30.1862 22.3154 30.8357 23.2812C31.4853 24.2469 31.8324 25.3843 31.8327 26.5482C31.8421 27.3088 31.7015 28.0638 31.4187 28.77C31.136 29.4762 30.7168 30.1197 30.1851 30.6636C29.6534 31.2076 29.0197 31.6414 28.3201 31.9402C27.6206 32.2389 26.869 32.3968 26.1083 32.4047ZM32.4697 20.6938C32.3267 20.6939 32.1852 20.6654 32.0533 20.61C31.9215 20.5547 31.8021 20.4735 31.702 20.3715C31.6019 20.2694 31.5232 20.1483 31.4705 20.0154C31.4178 19.8825 31.3921 19.7404 31.395 19.5975C31.395 19.3067 31.5105 19.0279 31.7161 18.8223C31.9217 18.6167 32.2006 18.5012 32.4913 18.5012C32.7821 18.5012 33.061 18.6167 33.2666 18.8223C33.4722 19.0279 33.5877 19.3067 33.5877 19.5975C33.592 19.7523 33.5628 19.9062 33.5021 20.0486C33.4414 20.1911 33.3506 20.3187 33.236 20.4228C33.1214 20.5269 32.9857 20.6051 32.8381 20.6518C32.6905 20.6986 32.5345 20.7129 32.3808 20.6938H32.4697Z" fill="black"/>
<path d="M26.1083 4.33333C20.362 4.3046 14.8396 6.55978 10.756 10.6027C6.67236 14.6457 4.36207 20.1453 4.33334 25.8917C4.30461 31.638 6.55978 37.1604 10.6028 41.244C14.6457 45.3276 20.1453 47.6379 25.8917 47.6667C28.737 47.6809 31.5572 47.1346 34.1914 46.0588C36.8256 44.9831 39.2221 43.3991 41.244 41.3972C43.266 39.3954 44.8739 37.0148 45.9759 34.3916C47.0779 31.7683 47.6524 28.9536 47.6667 26.1083C47.6809 23.263 47.1346 20.4428 46.0588 17.8086C44.9831 15.1744 43.3991 12.778 41.3973 10.756C39.3954 8.73396 37.0148 7.12606 34.3916 6.02407C31.7683 4.92207 28.9536 4.34756 26.1083 4.33333ZM39.2665 31.8543C39.2725 32.8264 39.0856 33.7899 38.7164 34.6892C38.3473 35.5884 37.8034 36.4054 37.1161 37.0929C36.4289 37.7803 35.612 38.3245 34.7129 38.6939C33.8137 39.0633 32.8502 39.2506 31.8782 39.2448H20.3428C19.3708 39.2509 18.4072 39.0639 17.508 38.6948C16.6087 38.3256 15.7917 37.7817 15.1043 37.0944C14.4168 36.4072 13.8726 35.5903 13.5032 34.6912C13.1338 33.7921 12.9466 32.8285 12.9523 31.8565V20.319C12.9463 19.347 13.1333 18.3834 13.5024 17.4841C13.8715 16.5849 14.4155 15.7679 15.1027 15.0804C15.79 14.393 16.6069 13.8488 17.506 13.4794C18.4051 13.11 19.3686 12.9227 20.3407 12.9285H31.8782C32.85 12.9227 33.8134 13.1099 34.7124 13.4792C35.6113 13.8485 36.4281 14.3925 37.1153 15.0797C37.8026 15.7669 38.3466 16.5837 38.7158 17.4826C39.0851 18.3816 39.2723 19.345 39.2665 20.3168V31.8543Z" fill="black"/>
</svg>
