<svg width="51" height="51" viewBox="0 0 51 51" fill="none" xmlns="http://www.w3.org/2000/svg">
<path d="M38.0375 23.1625C31.2375 19.125 19.8688 18.7 13.3875 20.7188C12.325 21.0375 11.2625 20.4 10.9438 19.4437C10.625 18.3812 11.2625 17.3188 12.2188 17C19.7625 14.7688 32.1938 15.1938 40.0563 19.8688C41.0125 20.4 41.3313 21.675 40.8 22.6312C40.2688 23.375 38.9937 23.6937 38.0375 23.1625ZM37.825 29.1125C37.2937 29.8562 36.3375 30.175 35.5938 29.6437C29.8563 26.1375 21.1438 25.075 14.45 27.2C13.6 27.4125 12.6438 26.9875 12.4312 26.1375C12.2188 25.2875 12.6438 24.3313 13.4937 24.1188C21.25 21.7812 30.8125 22.95 37.4 26.9875C38.0375 27.3062 38.3562 28.3687 37.825 29.1125ZM35.275 34.9563C34.85 35.5938 34.1063 35.8062 33.4688 35.3812C28.475 32.3 22.2062 31.6625 14.7687 33.3625C14.025 33.575 13.3875 33.0438 13.175 32.4062C12.9625 31.6625 13.4938 31.025 14.1313 30.8125C22.2062 29.0063 29.2188 29.75 34.7438 33.15C35.4875 33.4688 35.5938 34.3188 35.275 34.9563ZM25.5 4.25C22.7094 4.25 19.9461 4.79965 17.368 5.86756C14.7898 6.93547 12.4472 8.50074 10.474 10.474C6.48883 14.4591 4.25 19.8641 4.25 25.5C4.25 31.1359 6.48883 36.5409 10.474 40.526C12.4472 42.4993 14.7898 44.0645 17.368 45.1324C19.9461 46.2004 22.7094 46.75 25.5 46.75C31.1359 46.75 36.5409 44.5112 40.526 40.526C44.5112 36.5409 46.75 31.1359 46.75 25.5C46.75 22.7094 46.2004 19.9461 45.1324 17.368C44.0645 14.7898 42.4993 12.4472 40.526 10.474C38.5528 8.50074 36.2102 6.93547 33.632 5.86756C31.0539 4.79965 28.2906 4.25 25.5 4.25Z" fill="black"/>
</svg>
