<svg width="44" height="44" viewBox="0 0 44 44" fill="none" xmlns="http://www.w3.org/2000/svg">
<path d="M8.06024 29.8183L20.944 17.138C21.2251 16.8599 21.6046 16.7039 22 16.7039C22.3954 16.7039 22.7749 16.8599 23.056 17.138L35.9397 29.8155C36.2226 30.0935 36.6033 30.2492 36.9999 30.2492C37.3964 30.2492 37.7771 30.0935 38.06 29.8155C38.1993 29.6797 38.31 29.5174 38.3855 29.3382C38.4611 29.1589 38.5001 28.9664 38.5001 28.7719C38.5001 28.5774 38.4611 28.3848 38.3855 28.2056C38.31 28.0263 38.1993 27.864 38.06 27.7283L25.179 15.0508C24.3306 14.2177 23.189 13.751 22 13.751C20.811 13.751 19.6694 14.2177 18.821 15.0508L5.93999 27.7283C5.80029 27.8641 5.68924 28.0265 5.61341 28.206C5.53757 28.3855 5.4985 28.5784 5.4985 28.7733C5.4985 28.9681 5.53757 29.161 5.61341 29.3405C5.68924 29.52 5.80029 29.6824 5.93999 29.8183C6.22284 30.0962 6.60355 30.252 7.00012 30.252C7.39669 30.252 7.77739 30.0962 8.06024 29.8183Z" fill="black"/>
</svg>
