<svg width="129" height="129" viewBox="0 0 129 129" fill="none" xmlns="http://www.w3.org/2000/svg">
<g clip-path="url(#clip0_3_2)">
<path d="M70.9876 28.38C70.4233 28.2779 67.6981 27.821 64.5 27.821C61.3019 27.821 58.5768 28.2779 58.0124 28.38C57.6899 28.4337 57.5609 28.122 57.8081 27.9339C58.0339 27.7726 64.5 22.8491 64.5 22.8491L71.1865 27.9339C71.4391 28.122 71.3155 28.4391 70.9876 28.38ZM59.8184 60.3344C59.8184 60.3344 59.4744 60.458 59.3884 60.759C60.7429 61.7964 61.6728 64.1667 64.5 64.1667C67.3273 64.1667 68.2625 61.8018 69.6116 60.7536C69.5256 60.4526 69.1816 60.3344 69.1816 60.3344C69.1816 60.3344 67.4079 60.7482 64.5 60.7482C61.5868 60.7482 59.8184 60.3344 59.8184 60.3344ZM64.5 56.3461C63.7153 56.3461 63.5433 56.0505 63.0058 56.0505C62.5005 56.0505 61.5061 56.459 61.2911 56.8353C61.3032 57.0269 61.3832 57.208 61.5169 57.3459C62.6564 57.5125 63.1778 58.1521 64.5 58.1521C65.8223 58.1521 66.3436 57.5125 67.4885 57.3459C67.6165 57.2048 67.694 57.0252 67.7089 56.8353C67.4939 56.459 66.5049 56.0559 65.9943 56.0505C65.4568 56.0505 65.2848 56.3461 64.5 56.3461ZM128.93 68.5474C128.849 70.08 128.712 71.6093 128.522 73.1322C121.212 74.3416 118.605 67.8325 111.123 68.1604C111.567 69.7478 111.931 71.3657 112.214 73.014C118.384 73.014 120.868 78.7814 127.737 77.9321C127.379 79.6951 126.945 81.433 126.436 83.1459C121.007 83.6834 119.099 78.2869 112.816 78.4374C112.87 79.3296 112.896 80.2326 112.896 81.1464L112.87 82.6514L125.071 87.3061C124.433 89.0343 123.721 90.7344 122.937 92.4016C119.271 92.2027 118.008 87.4996 112.429 87.8705C112.262 89.0695 112.051 90.2618 111.795 91.4449C116.637 91.1063 117.68 95.5675 121.147 95.9276C120.265 97.5388 119.315 99.1115 118.298 100.642C116.245 99.5396 114.461 96.2179 110.558 96.0136C110.96 94.7742 111.312 93.519 111.612 92.2511C108.15 92.2511 104.194 90.9074 100.883 87.8866C101.958 81.7591 92.4554 75.5295 92.4554 71.0468C92.4554 66.177 94.9171 63.4841 94.9171 56.9212C94.9171 52.0461 92.5521 46.7625 88.9831 43.1505C88.3205 42.4729 87.5788 41.8773 86.774 41.3767C90.0527 45.4295 92.5683 50.2401 92.5683 55.8086C92.5683 61.9899 89.6926 65.2525 89.6926 70.9607C89.6926 76.6636 98.04 81.6032 98.04 87.4835C98.04 89.7947 97.2983 92.0522 94.858 96.4974C98.6044 100.238 103.485 102.281 106.629 102.281C107.65 102.281 108.204 101.969 108.57 101.168C108.885 100.475 109.185 99.7741 109.467 99.0666C112.853 99.1956 114.412 102.275 116.288 103.506C115.256 104.893 114.174 106.23 113.042 107.516C111.784 106.124 110.091 103.781 107.613 103.13C107.173 103.991 106.707 104.839 106.215 105.672C108.344 106.253 109.801 108.403 110.929 109.817C109.712 111.079 108.445 112.291 107.129 113.45C106.307 112.166 105.022 110.542 103.582 109.666C103.053 110.382 102.503 111.081 101.932 111.762C103.152 112.595 104.232 114.084 104.936 115.299C103.417 116.521 101.84 117.677 100.206 118.766C99.3999 112.209 90.4559 107.72 92.8693 100.115C92.0791 101.458 91.1331 103.13 91.1331 105.151C91.1331 110.655 96.9919 115.02 97.4649 120.491C96.2465 121.215 95.0049 121.901 93.74 122.55C93.525 116.535 87.3223 109.956 87.3223 105.028C87.3223 99.5181 94.5355 93.9819 94.5355 87.4835C94.5355 80.9797 86.2096 76.4701 86.2096 70.7619C86.2096 65.0536 89.7518 61.7695 89.7518 54.4487C89.7518 49.0899 87.204 43.6665 83.2695 40.205C82.6021 39.6024 81.8617 39.086 81.0658 38.6677C84.7745 43.1182 86.9245 47.1602 86.9245 53.2824C86.9245 60.1624 82.8664 63.9786 82.8664 70.7189C82.8664 77.4591 91.0364 81.2001 91.0364 87.4889C91.0364 93.7669 83.4361 99.0559 83.4361 105.511C83.4361 111.381 90.1334 117.24 90.2355 124.2C88.7653 124.84 87.2718 125.424 85.7581 125.952C86.6128 118.917 79.0663 111.66 79.0663 105.92C79.0663 99.6471 86.9514 94.2506 86.9514 87.4835C86.9514 80.7164 78.9373 77.5666 78.9373 70.6167C78.9373 63.6669 83.8554 59.8291 83.8554 52.1536C83.8394 49.3132 83.1767 46.5136 81.9176 43.9675C80.6584 41.4213 78.836 39.1953 76.5884 37.4584L76.3143 37.2541C75.9058 36.9531 75.5725 37.3132 75.8628 37.6734C78.9158 41.4896 80.5498 45.3435 80.5498 51.0571C80.5498 58.0715 74.8953 63.7744 74.8953 70.5791C74.8953 78.604 82.4848 80.8991 82.4848 87.4835C82.4848 94.0679 74.347 99.3354 74.347 106.323C74.347 112.805 82.0494 120.002 80.7271 127.484C79.1746 127.887 77.6076 128.231 76.0294 128.516C77.4753 119.201 69.918 112.51 69.918 106.414C69.918 99.8138 78.346 93.9335 78.346 87.4835C78.346 81.4044 72.2991 79.4156 71.5036 73.1914C71.3961 72.3421 70.7135 71.7133 69.7729 71.8691C68.542 72.0949 66.9671 72.9011 64.4946 72.9011C62.0221 72.9011 60.4473 72.0949 59.2164 71.8691C58.2811 71.7133 57.5985 72.3421 57.491 73.1914C56.6955 79.4156 50.6433 81.399 50.6433 87.4889C50.6433 93.9335 59.0713 99.8138 59.0713 106.409C59.0713 112.51 51.5194 119.201 52.9599 128.516C51.3817 128.231 49.8147 127.887 48.2621 127.484C46.9399 120.002 54.6423 112.81 54.6423 106.323C54.6423 99.3354 46.5045 94.0679 46.5045 87.4835C46.5045 80.8991 54.094 78.604 54.094 70.5791C54.094 63.7744 48.4449 58.0769 48.4449 51.0517C48.4449 45.3435 50.0735 41.4842 53.1319 37.668C53.4168 37.3132 53.0835 36.9531 52.675 37.2541L52.4063 37.4584C50.1611 39.1947 48.3405 41.4192 47.0824 43.9634C45.8243 46.5076 45.1616 49.3047 45.1446 52.1429C45.1446 59.8184 50.0628 63.6615 50.0628 70.6114C50.0628 77.5559 42.0433 80.7056 42.0433 87.4781C42.0433 94.2399 49.9284 99.6364 49.9284 105.914C49.9284 111.655 42.3873 118.911 43.2419 125.947C41.7282 125.419 40.2347 124.834 38.7645 124.195C38.8666 117.229 45.5639 111.37 45.5639 105.5C45.5639 99.0505 37.9636 93.7561 37.9636 87.4781C37.9636 81.2001 46.1283 77.4484 46.1283 70.7081C46.1283 63.9732 42.0755 60.1516 42.0755 53.2716C42.0755 47.1441 44.2255 43.1129 47.9343 38.6624C47.1386 39.0789 46.3982 39.5936 45.7305 40.1942C43.7254 41.9925 42.1144 44.1864 40.9988 46.6378C39.8831 49.0891 39.2871 51.745 39.2483 54.438C39.2483 61.7587 42.7904 65.0429 42.7904 70.7511C42.7904 76.4594 34.4645 80.9636 34.4645 87.4727C34.4645 93.9765 41.6778 99.5127 41.6778 105.017C41.6778 109.951 35.4696 116.53 35.26 122.539C33.9961 121.894 32.7538 121.208 31.5351 120.481C32.0028 115.014 37.8669 110.644 37.8669 105.14C37.8669 103.125 36.9209 101.448 36.1308 100.109C38.5388 107.71 29.5948 112.203 28.7885 118.755C27.1601 117.672 25.5818 116.515 24.0585 115.288C24.7626 114.079 25.843 112.585 27.0685 111.757C26.495 111.074 25.9429 110.373 25.413 109.655C23.9725 110.531 22.6879 112.16 21.8655 113.439C20.55 112.282 19.2823 111.072 18.0654 109.811C19.1941 108.392 20.6561 106.242 22.7846 105.662C22.2917 104.829 21.8238 103.981 21.3818 103.119C18.9093 103.775 17.2108 106.119 15.953 107.511C14.8196 106.218 13.7384 104.88 12.7119 103.501C14.5931 102.265 16.1411 99.1849 19.5328 99.0559C19.8158 99.7618 20.115 100.461 20.4304 101.152C20.7959 101.958 21.3441 102.27 22.3654 102.27C25.5151 102.27 30.3903 100.228 34.1366 96.4866C31.7018 92.0469 30.9654 89.7894 30.9654 87.4727C30.9654 81.5925 39.3074 76.6582 39.3074 70.95C39.3074 65.2417 36.4318 61.9845 36.4318 55.8032C36.4318 50.2294 38.9473 45.4241 42.226 41.366C41.4193 41.8662 40.6758 42.4618 40.0115 43.1397C36.4479 46.7625 34.0775 52.0461 34.0775 56.9159C34.0775 63.4787 36.5446 66.177 36.5446 71.0468C36.5446 75.5295 27.0416 81.7591 28.1166 87.8813C24.8003 90.902 20.8443 92.2511 17.3828 92.2511C17.6813 93.5189 18.031 94.7741 18.4309 96.0136C14.534 96.2179 12.7549 99.5396 10.6909 100.636C9.67474 99.1079 8.72429 97.5369 7.84213 95.9276C11.3144 95.5621 12.3571 91.1063 17.2054 91.4449C16.9493 90.2618 16.7377 89.0695 16.5711 87.8705C10.9919 87.4942 9.72338 92.2027 6.05763 92.4016C5.27571 90.7343 4.56556 89.0342 3.92913 87.3061L16.125 82.646L16.0981 81.141C16.0981 80.2272 16.1232 79.3225 16.1734 78.4266C9.89538 78.2815 7.98188 83.6726 2.55313 83.1405C2.04912 81.4213 1.61695 79.6819 1.25775 77.9267C8.11625 78.7706 10.6103 73.0032 16.7808 73.0086C17.059 71.3714 17.4214 69.7496 17.8665 68.1496C10.3845 67.8271 7.77225 74.3309 0.473004 73.1215C0.282457 71.6003 0.146204 70.0729 0.0645039 68.542C8.557 69.488 11.7336 62.5112 19.4683 63.3659C20.1861 61.5236 21.0302 59.7331 21.9945 58.007C12.3034 56.3031 9.01388 64.4086 -0.00537109 63.167C0.972879 28.38 29.4765 0.483749 64.5 0.483749C99.5235 0.483749 128.027 28.38 129 63.1724C119.975 64.4194 116.691 56.3139 107 58.0124C107.957 59.736 108.799 61.5222 109.526 63.3712C117.256 62.5166 120.438 69.4987 128.93 68.5474ZM36.765 41.4842C32.0135 39.5439 26.2623 39.99 21.3495 43.1505C20.5863 38.5764 18.1084 34.5129 14.577 32.0672C14.0879 31.7286 13.5826 32.0457 13.6256 32.6155C14.3728 42.269 8.72363 50.654 1.7845 58.0285C8.93863 60.1785 15.0285 50.9657 24.3058 54.18C27.6384 49.2143 31.8629 44.9097 36.765 41.4842ZM64.5 35.6416C58.5123 35.6416 53.492 39.0279 52.1805 43.4085C52.073 43.7417 52.2128 43.9621 52.5998 43.7847C53.6748 43.301 54.9056 43.0699 56.2386 43.0699C58.6789 43.0699 60.8343 43.9675 62.1081 45.5263C62.6671 47.386 62.7155 50.0789 62.0813 51.6107C61.0761 51.385 60.7106 50.611 59.727 50.611C58.7488 50.611 57.9855 51.299 56.3193 51.299C54.653 51.299 54.4595 50.5142 53.363 50.5142C52.073 50.5142 51.8365 51.8419 51.8365 53.3361C51.8365 60.0119 57.9748 69.1924 64.5 69.1924C71.0253 69.1924 77.1528 60.0119 77.1528 53.3361C77.1528 51.8365 76.8464 50.5572 75.5026 50.3799C74.7091 51.0305 73.6998 51.3586 72.6754 51.299C71.0091 51.299 70.5523 50.611 69.5686 50.611C68.3861 50.611 68.5044 53.1104 67.0961 53.2447C66.1555 50.9926 66.1125 48.1009 66.8919 45.5263C68.1658 43.9675 70.3158 43.0699 72.7614 43.0699C74.0944 43.0699 75.3253 43.3064 76.3949 43.7847C76.7819 43.9621 76.9163 43.7417 76.8195 43.4085C75.508 39.0332 70.4878 35.6416 64.5 35.6416ZM74.0353 45.2199C72.6001 45.2199 70.9178 45.6606 69.8589 46.8377C69.7393 47.2036 69.7546 47.6002 69.9019 47.9557C72.5088 47.0635 74.8039 47.0259 75.9165 48.2675C76.5078 47.73 76.6959 47.2462 76.6959 46.6872C76.6959 45.8219 75.8144 45.2199 74.0353 45.2199ZM53.0835 48.2675C54.3413 47.0097 56.9911 47.0635 59.7378 48.0794C59.8614 46.7141 57.4104 45.2145 54.9648 45.2145C53.1856 45.2145 52.3041 45.8165 52.3041 46.6872C52.3041 47.2462 52.4923 47.7354 53.0835 48.2675ZM94.3635 25.6764C89.6335 26.015 85.5324 27.6382 82.2053 30.3419C83.5645 26.4955 85.4048 22.8366 87.6824 19.4521C81.6624 20.0917 76.626 22.2955 72.9549 26.058L70.0739 18.5169L76.4594 12.8839L67.9131 12.2765L64.5 4.32687L61.0869 12.2819L52.5406 12.8839L58.9208 18.5223L56.0505 26.058C52.374 22.2955 47.343 20.0917 41.323 19.4521C43.5968 22.8371 45.4335 26.4961 46.7894 30.3419C43.4676 27.6382 39.3611 26.015 34.6311 25.6764C37.4691 29.326 39.9846 33.2121 41.8444 37.3939C42.0594 37.8669 42.5109 38.0227 42.9946 37.7755C49.6749 34.456 57.035 32.7338 64.4946 32.7445C72.2239 32.7445 79.5178 34.5612 86 37.7755C86.4891 38.0227 86.9406 37.8669 87.1503 37.3992C89.0154 33.2121 91.5309 29.326 94.3689 25.6817L94.3635 25.6764ZM104.694 54.1854C113.972 50.9711 120.067 60.1785 127.215 58.0339C120.276 50.6594 114.633 42.2744 115.38 32.6155C115.423 32.0511 114.912 31.7286 114.428 32.0672C110.897 34.5182 108.414 38.5817 107.656 43.1505C102.743 39.9954 96.9919 39.5492 92.2404 41.4896C97.1406 44.9155 101.363 49.2202 104.694 54.1854Z" fill="#206D16"/>
</g>
<defs>
<clipPath id="clip0_3_2">
<rect width="129" height="129" fill="white"/>
</clipPath>
</defs>
</svg>
